#N canvas -11 -11 2256 1380 12;
#X msg 89 176 0 0 0 \, 0.5 \$1 0;
#X obj 89 200 vline~;
#X obj 89 224 *~ -1;
#X obj 89 248 +~ 0.25;
#X obj 89 272 cos~;
#X obj 89 296 *~;
#X obj 294 418 *~;
#X obj 281 610 dac~;
#X obj 279 66 t b f;
#X obj 322 128 del 200;
#X obj 322 152 f;
#X msg 322 176 0 0 0 \, 0.5 \$1 0;
#X obj 457 312 *~ 10;
#X obj 457 336 clip~ -0.5 1;
#X obj 266 103 / 2;
#X obj 322 200 vline~;
#X obj 322 224 *~ -1;
#X obj 322 248 +~ 0.25;
#X obj 322 272 cos~;
#X obj 322 296 *~;
#X obj 224 355 +~;
#X msg 266 35 250;
#X obj 571 108 vsl 15 128 1 500 0 0 empty empty empty 0 -9 0 10 -262144
-1 -1 6400 1;
#X obj 618 154 vsl 15 128 0 100 0 0 empty empty empty 0 -9 0 10 -262144
-1 -1 4800 1;
#X floatatom 618 290 5 0 0 0 - - -;
#X floatatom 571 244 5 0 0 0 - - -;
#X obj 327 546 *~;
#X obj 481 427 vsl 15 128 0 1 0 0 empty empty empty 0 -9 0 10 -262144
-1 -1 19500 1;
#X floatatom 481 563 5 0 0 0 - - -;
#X obj 457 238 noise~;
#X obj 457 262 lop~ 2500;
#X obj 457 288 bp~;
#X obj 91 602 writesf~;
#X msg 41 441 open footstep.wav \, start;
#X obj 92 494 delay 500;
#X msg 92 542 stop;
#X obj 35 7 bng 15 250 50 0 empty empty empty 17 7 0 10 -262144 -1
-1;
#X obj 92 521 bng 15 250 50 0 empty empty empty 17 7 0 10 -262144 -1
-1;
#X obj 92 470 bng 15 250 50 0 empty empty empty 17 7 0 10 -262144 -1
-1;
#X text 164 494 <- records 500ms;
#X text 62 5 <- start synth and recording simulatenously;
#X text 507 423 <- master volume;
#X text 651 153 <- Q;
#X text 597 104 <- center freq;
#X connect 0 0 1 0;
#X connect 1 0 2 0;
#X connect 2 0 3 0;
#X connect 3 0 4 0;
#X connect 4 0 5 0;
#X connect 4 0 5 1;
#X connect 5 0 20 0;
#X connect 6 0 26 0;
#X connect 8 0 9 0;
#X connect 8 1 14 0;
#X connect 8 1 9 1;
#X connect 9 0 10 0;
#X connect 10 0 11 0;
#X connect 11 0 15 0;
#X connect 12 0 13 0;
#X connect 13 0 6 1;
#X connect 14 0 0 0;
#X connect 14 0 10 0;
#X connect 15 0 16 0;
#X connect 16 0 17 0;
#X connect 17 0 18 0;
#X connect 18 0 19 0;
#X connect 19 0 20 1;
#X connect 20 0 6 0;
#X connect 21 0 8 0;
#X connect 22 0 25 0;
#X connect 23 0 24 0;
#X connect 24 0 31 2;
#X connect 25 0 31 1;
#X connect 26 0 7 0;
#X connect 26 0 7 1;
#X connect 26 0 32 0;
#X connect 27 0 28 0;
#X connect 28 0 26 1;
#X connect 29 0 30 0;
#X connect 30 0 31 0;
#X connect 31 0 12 0;
#X connect 33 0 32 0;
#X connect 33 0 38 0;
#X connect 34 0 37 0;
#X connect 35 0 32 0;
#X connect 36 0 21 0;
#X connect 36 0 33 0;
#X connect 37 0 35 0;
#X connect 38 0 34 0;
